<?xml version="1.0" standalone="no"?>
<!DOCTYPE svg PUBLIC "-//W3C//DTD SVG 20010904//EN"
 "http://www.w3.org/TR/2001/REC-SVG-20010904/DTD/svg10.dtd">
<svg version="1.0" xmlns="http://www.w3.org/2000/svg"
 width="512.000000pt" height="512.000000pt" viewBox="0 0 512.000000 512.000000"
 preserveAspectRatio="xMidYMid meet">

<g transform="translate(0.000000,512.000000) scale(0.100000,-0.100000)"
fill="#000000" stroke="none">
<path d="M29 5091 l-29 -29 0 -396 0 -396 85 0 85 0 0 340 0 340 340 0 340 0
0 85 0 85 -396 0 -396 0 -29 -29z"/>
<path d="M4270 5035 l0 -85 340 0 340 0 0 -340 0 -340 85 0 85 0 0 396 0 396
-29 29 -29 29 -396 0 -396 0 0 -85z"/>
<path d="M455 4665 l-25 -24 0 -376 0 -376 25 -24 24 -25 371 0 372 0 29 29
29 29 0 372 0 371 -25 24 -24 25 -376 0 -376 0 -24 -25z m655 -400 l0 -255
-255 0 -255 0 0 255 0 255 255 0 255 0 0 -255z"/>
<path d="M770 4265 l0 -85 85 0 85 0 0 85 0 85 -85 0 -85 0 0 -85z"/>
<path d="M1620 4605 l0 -85 85 0 85 0 0 -170 0 -170 85 0 85 0 0 170 0 170
685 0 685 0 0 -85 0 -85 85 0 85 0 0 170 0 170 -940 0 -940 0 0 -85z"/>
<path d="M3865 4665 l-25 -24 0 -371 0 -372 29 -29 29 -29 372 0 371 0 24 25
25 24 0 376 0 376 -25 24 -24 25 -376 0 -376 0 -24 -25z m655 -400 l0 -255
-255 0 -255 0 0 255 0 255 255 0 255 0 0 -255z"/>
<path d="M4180 4265 l0 -85 85 0 85 0 0 85 0 85 -85 0 -85 0 0 -85z"/>
<path d="M1450 4265 l0 -85 85 0 85 0 0 85 0 85 -85 0 -85 0 0 -85z"/>
<path d="M2130 4265 l0 -85 45 0 45 0 0 -85 0 -85 -215 0 -215 0 0 -85 0 -85
85 0 85 0 0 -85 0 -85 170 0 170 0 0 170 0 170 45 0 45 0 0 85 0 85 40 0 40 0
0 85 0 85 -170 0 -170 0 0 -85z"/>
<path d="M2650 4265 l0 -85 85 0 85 0 0 85 0 85 -85 0 -85 0 0 -85z"/>
<path d="M2990 4180 l0 -170 170 0 170 0 0 85 0 85 -85 0 -85 0 0 85 0 85 -85
0 -85 0 0 -170z"/>
<path d="M3500 4095 l0 -85 85 0 85 0 0 85 0 85 -85 0 -85 0 0 -85z"/>
<path d="M1450 3840 l0 -170 85 0 85 0 0 -85 0 -85 85 0 85 0 0 85 0 85 -85 0
-85 0 0 170 0 170 -85 0 -85 0 0 -170z"/>
<path d="M2650 3925 l0 -85 -90 0 -90 0 0 -85 0 -85 90 0 90 0 0 85 0 85 85 0
85 0 0 85 0 85 -85 0 -85 0 0 -85z"/>
<path d="M3410 3670 l0 -170 170 0 170 0 0 170 0 170 -170 0 -170 0 0 -170z"/>
<path d="M430 3585 l0 -85 425 0 425 0 0 85 0 85 -425 0 -425 0 0 -85z"/>
<path d="M3930 3585 l0 -84 -87 -3 -88 -3 -3 -82 -3 -83 -169 0 -170 0 0 -170
0 -170 85 0 84 0 3 83 3 82 83 3 82 3 0 84 0 85 175 0 175 0 0 85 0 85 85 0
85 0 0 85 0 85 -170 0 -170 0 0 -85z"/>
<path d="M4520 3285 l0 -385 -170 0 -170 0 0 85 0 85 -170 0 -170 0 0 -170 0
-170 340 0 339 0 3 -127 3 -128 83 -3 82 -3 0 601 0 600 -85 0 -85 0 0 -385z"/>
<path d="M2820 3325 l0 -255 85 0 85 0 0 85 0 85 85 0 85 0 0 85 0 85 -85 0
-85 0 0 85 0 85 -85 0 -85 0 0 -255z"/>
<path d="M2300 3330 l0 -170 -85 0 -85 0 0 85 0 85 -170 0 -170 0 0 -170 0
-170 85 0 85 0 2 -257 3 -258 82 -3 82 -3 3 88 3 88 82 3 83 3 2 167 3 167 82
3 82 3 3 82 3 82 88 3 88 3 -3 82 -3 82 -87 3 -88 3 0 84 0 85 -85 0 -85 0 0
-170z"/>
<path d="M430 3075 l0 -255 85 0 85 0 0 85 0 85 85 0 85 0 0 170 0 170 -170 0
-170 0 0 -255z"/>
<path d="M940 3245 l0 -85 170 0 170 0 0 85 0 85 -170 0 -170 0 0 -85z"/>
<path d="M1450 3245 l0 -85 85 0 85 0 0 85 0 85 -85 0 -85 0 0 -85z"/>
<path d="M940 2905 l0 -85 -85 0 -85 0 0 -85 0 -85 85 0 85 0 0 85 0 85 170 0
170 0 0 -85 0 -85 85 0 84 0 3 -87 3 -88 83 -3 82 -3 0 -84 0 -85 -85 0 -85 0
0 -85 0 -85 -340 0 -340 0 0 -340 0 -340 170 0 170 0 0 85 0 85 -85 0 -85 0 0
85 0 85 170 0 170 0 0 -255 0 -255 85 0 85 0 0 85 0 85 170 0 170 0 0 -170 0
-170 -85 0 -85 0 0 -85 0 -85 -85 0 -85 0 0 -255 0 -255 85 0 85 0 0 85 0 85
130 0 130 0 0 -85 0 -85 85 0 85 0 0 85 0 85 40 0 40 0 0 85 0 85 -255 0 -255
0 0 85 0 85 85 0 85 0 0 85 0 85 170 0 170 0 0 85 0 85 -85 0 -85 0 0 85 0 85
-85 0 -85 0 0 85 0 85 -85 0 -85 0 0 85 0 85 85 0 85 0 0 85 0 85 170 0 170 0
0 85 0 85 85 0 85 0 0 85 0 85 -170 0 -170 0 0 -85 0 -85 -85 0 -85 0 0 -85 0
-85 -170 0 -170 0 0 85 0 85 85 0 85 0 0 85 0 85 85 0 85 0 0 85 0 85 -85 0
-85 0 0 90 0 90 -85 0 -85 0 0 85 0 85 -85 0 -85 0 0 85 0 85 -170 0 -170 0 0
-85z"/>
<path d="M2650 2815 l0 -85 -90 0 -90 0 0 -85 0 -85 90 0 90 0 0 85 0 85 85 0
85 0 0 85 0 85 -85 0 -85 0 0 -85z"/>
<path d="M3070 2730 l0 -170 -85 0 -85 0 0 -85 0 -85 85 0 85 0 0 -85 0 -85
85 0 85 0 0 85 0 85 85 0 85 0 0 85 0 85 85 0 85 0 0 170 0 170 -255 0 -255 0
0 -170z"/>
<path d="M430 2045 l0 -425 85 0 85 0 0 340 0 339 83 3 82 3 3 83 3 82 -171 0
-170 0 0 -425z"/>
<path d="M940 2385 l0 -85 85 0 85 0 0 85 0 85 -85 0 -85 0 0 -85z"/>
<path d="M3840 2385 l0 -85 170 0 170 0 0 -85 0 -85 85 0 85 0 0 85 0 85 -85
0 -85 0 0 85 0 85 -170 0 -170 0 0 -85z"/>
<path d="M2390 2215 l0 -85 85 0 85 0 0 85 0 85 -85 0 -85 0 0 -85z"/>
<path d="M2730 2215 l0 -85 85 0 85 0 0 85 0 85 -85 0 -85 0 0 -85z"/>
<path d="M4522 2218 l3 -83 83 -3 82 -3 0 86 0 85 -85 0 -86 0 3 -82z"/>
<path d="M3670 1960 l0 -170 85 0 85 0 0 -255 0 -255 85 0 85 0 0 85 0 85 85
0 85 0 0 170 0 170 85 0 85 0 0 85 0 85 -170 0 -170 0 0 85 0 85 -170 0 -170
0 0 -170z"/>
<path d="M2730 1880 l0 -170 -85 0 -85 0 0 -85 0 -85 85 0 85 0 0 85 0 85 85
0 85 0 0 -170 0 -170 255 0 255 0 0 170 0 170 -85 0 -85 0 0 170 0 170 -255 0
-255 0 0 -170z"/>
<path d="M4520 1790 l0 -170 -85 0 -85 0 0 -85 0 -85 170 0 170 0 0 255 0 255
-85 0 -85 0 0 -170z"/>
<path d="M2220 1710 l0 -170 85 0 85 0 0 170 0 170 -85 0 -85 0 0 -170z"/>
<path d="M2560 1280 l0 -90 85 0 85 0 0 -85 0 -85 85 0 85 0 0 85 0 85 -85 0
-85 0 0 90 0 90 -85 0 -85 0 0 -90z"/>
<path d="M455 1255 l-25 -24 0 -376 0 -376 25 -24 24 -25 376 0 376 0 24 25
25 24 0 371 0 372 -29 29 -29 29 -372 0 -371 0 -24 -25z m655 -400 l0 -255
-255 0 -255 0 0 255 0 255 255 0 255 0 0 -255z"/>
<path d="M770 855 l0 -85 85 0 85 0 0 85 0 85 -85 0 -85 0 0 -85z"/>
<path d="M3500 1195 l0 -85 -85 0 -85 0 0 -85 0 -85 85 0 85 0 0 85 0 85 85 0
85 0 0 -85 0 -85 85 0 85 0 0 85 0 85 -85 0 -85 0 0 85 0 85 -85 0 -85 0 0
-85z"/>
<path d="M4350 1195 l0 -85 85 0 85 0 0 85 0 85 -85 0 -85 0 0 -85z"/>
<path d="M4010 1025 l0 -85 85 0 85 0 0 85 0 85 -85 0 -85 0 0 -85z"/>
<path d="M2300 855 l0 -85 85 0 85 0 0 85 0 85 -85 0 -85 0 0 -85z"/>
<path d="M4350 855 l0 -85 85 0 85 0 0 -170 0 -170 85 0 85 0 0 255 0 255
-170 0 -170 0 0 -85z"/>
<path d="M0 454 l0 -396 29 -29 29 -29 396 0 396 0 0 85 0 85 -340 0 -340 0 0
340 0 340 -85 0 -85 0 0 -396z"/>
<path d="M4950 510 l0 -340 -255 0 -255 0 0 -85 0 -85 311 0 311 0 29 29 29
29 0 396 0 396 -85 0 -85 0 0 -340z"/>
<path d="M2477 764 c-4 -4 -7 -42 -7 -85 l0 -78 -82 -3 -83 -3 -3 -82 -3 -83
176 0 175 0 0 85 0 85 85 0 86 0 -3 83 -3 82 -166 3 c-91 1 -168 -1 -172 -4z"/>
<path d="M2990 685 l0 -85 85 0 85 0 0 -85 0 -85 170 0 170 0 0 85 0 85 85 0
85 0 0 -85 0 -85 255 0 255 0 0 170 0 170 -85 0 -85 0 0 -85 0 -85 -170 0
-170 0 0 85 0 85 -170 0 -170 0 0 -85 0 -85 -85 0 -85 0 0 85 0 85 -85 0 -85
0 0 -85z"/>
</g>
</svg>
